<svg xmlns="http://www.w3.org/2000/svg" width="40" height="40" viewBox="0 0 512 512" style="-ms-transform:rotate(360deg);-webkit-transform:rotate(360deg)" transform="rotate(360)"><path fill="#FE378C" d="M472 96h-88V40h-32v56H160V40h-32v56H40a24.028 24.028 0 00-24 24v336a24.028 24.028 0 0024 24h432a24.028 24.028 0 0024-24V120a24.028 24.028 0 00-24-24zm-8 352H48V128h80v40h32v-40h192v40h32v-40h80z"/><path fill="#FE378C" d="M112 224h32v32h-32zm88 0h32v32h-32zm80 0h32v32h-32zm88 0h32v32h-32zm-256 72h32v32h-32zm88 0h32v32h-32zm80 0h32v32h-32zm88 0h32v32h-32zm-256 72h32v32h-32zm88 0h32v32h-32zm80 0h32v32h-32zm88 0h32v32h-32z"/><path fill="rgba(0, 0, 0, 0)" d="M0 0h512v512H0z"/></svg>