<svg xmlns="http://www.w3.org/2000/svg" width="10" height="15" viewBox="0 0 1024 1280" style="-ms-transform:rotate(360deg);-webkit-transform:rotate(360deg)" transform="rotate(360)"><path d="M1011 224q0-13-10-23l-50-50q-10-10-23-10t-23 10L512 544 119 151q-10-10-23-10t-23 10l-50 50q-10 10-10 23t10 23l466 466q10 10 23 10t23-10l466-466q10-10 10-23zm0 384q0-13-10-23l-50-50q-10-10-23-10t-23 10L512 928 119 535q-10-10-23-10t-23 10l-50 50q-10 10-10 23t10 23l466 466q10 10 23 10t23-10l466-466q10-10 10-23z" fill="#BFC9CA"/><path fill="rgba(0, 0, 0, 0)" d="M0 0h1024v1280H0z"/></svg>